<svg width="1024" height="1024" viewBox="0 0 1024 1024" fill="none" xmlns="http://www.w3.org/2000/svg">
  <defs>
    <linearGradient id="bg" x1="140" y1="120" x2="884" y2="904" gradientUnits="userSpaceOnUse">
      <stop stop-color="#0F172A"/>
      <stop offset="0.55" stop-color="#102A43"/>
      <stop offset="1" stop-color="#0A8F8A"/>
    </linearGradient>
    <linearGradient id="accent" x1="278" y1="704" x2="746" y2="320" gradientUnits="userSpaceOnUse">
      <stop stop-color="#22D3EE"/>
      <stop offset="1" stop-color="#34D399"/>
    </linearGradient>
    <linearGradient id="bar" x1="0" y1="0" x2="0" y2="1">
      <stop stop-color="#9FFCF2" stop-opacity="0.95"/>
      <stop offset="1" stop-color="#22D3EE" stop-opacity="0.2"/>
    </linearGradient>
    <filter id="glow" x="199" y="227" width="626" height="582" filterUnits="userSpaceOnUse" color-interpolation-filters="sRGB">
      <feFlood flood-opacity="0" result="BackgroundImageFix"/>
      <feBlend mode="normal" in="SourceGraphic" in2="BackgroundImageFix" result="shape"/>
      <feGaussianBlur stdDeviation="22" result="effect1_foregroundBlur"/>
    </filter>
  </defs>

  <rect x="64" y="64" width="896" height="896" rx="224" fill="url(#bg)"/>
  <rect x="112" y="112" width="800" height="800" rx="176" stroke="white" stroke-opacity="0.08" stroke-width="2"/>

  <g opacity="0.1">
    <path d="M224 288H800" stroke="white" stroke-width="2"/>
    <path d="M224 416H800" stroke="white" stroke-width="2"/>
    <path d="M224 544H800" stroke="white" stroke-width="2"/>
    <path d="M224 672H800" stroke="white" stroke-width="2"/>
    <path d="M288 224V800" stroke="white" stroke-width="2"/>
    <path d="M416 224V800" stroke="white" stroke-width="2"/>
    <path d="M544 224V800" stroke="white" stroke-width="2"/>
    <path d="M672 224V800" stroke="white" stroke-width="2"/>
  </g>

  <g opacity="0.92">
    <rect x="286" y="522" width="54" height="176" rx="27" fill="url(#bar)"/>
    <rect x="390" y="452" width="54" height="246" rx="27" fill="url(#bar)"/>
    <rect x="494" y="366" width="54" height="332" rx="27" fill="url(#bar)"/>
    <rect x="598" y="422" width="54" height="276" rx="27" fill="url(#bar)"/>
    <rect x="702" y="314" width="54" height="384" rx="27" fill="url(#bar)"/>
  </g>

  <g filter="url(#glow)">
    <path d="M271 651L415 560L524 433L627 481L753 332" stroke="url(#accent)" stroke-width="34" stroke-linecap="round" stroke-linejoin="round"/>
    <circle cx="271" cy="651" r="18" fill="#67E8F9"/>
    <circle cx="415" cy="560" r="18" fill="#67E8F9"/>
    <circle cx="524" cy="433" r="18" fill="#67E8F9"/>
    <circle cx="627" cy="481" r="18" fill="#67E8F9"/>
    <circle cx="753" cy="332" r="18" fill="#86EFAC"/>
  </g>

  <path d="M246 778H778" stroke="white" stroke-opacity="0.18" stroke-width="16" stroke-linecap="round"/>
</svg>
